<svg width="129" height="24" viewBox="0 0 129 24" fill="none" xmlns="http://www.w3.org/2000/svg">
<path d="M8.84 8.808H15.152V16.392C13.088 17.624 10.952 18.24 8.744 18.24C6.232 18.24 4.2 17.44 2.648 15.84C1.096 14.24 0.32 12.168 0.32 9.624C0.32 7.08 1.12 5.008 2.72 3.408C4.32 1.808 6.24 1.008 8.48 1.008C10.736 1.008 12.872 1.624 14.888 2.856V5.112H14.792C12.824 3.784 10.88 3.12 8.96 3.12C7.056 3.12 5.504 3.696 4.304 4.848C3.104 6 2.504 7.568 2.504 9.552C2.504 11.52 3.088 13.12 4.256 14.352C5.424 15.568 7.016 16.176 9.032 16.176C10.536 16.176 11.936 15.824 13.232 15.12V10.776H8.84V8.808ZM18.9714 6.432C20.3634 5.824 21.8514 5.52 23.4354 5.52C25.0354 5.52 26.2594 5.984 27.1074 6.912C27.9554 7.84 28.3794 8.952 28.3794 10.248V18H26.4594L26.1954 16.464H26.1234C24.9714 17.648 23.4914 18.24 21.6834 18.24C20.5954 18.24 19.6674 17.912 18.8994 17.256C18.1474 16.6 17.7714 15.704 17.7714 14.568C17.7714 13.432 18.2354 12.512 19.1634 11.808C20.1074 11.104 21.4834 10.752 23.2914 10.752H26.1954V10.56C26.1954 9.504 25.9314 8.744 25.4034 8.28C24.8914 7.816 23.9954 7.584 22.7154 7.584C21.4354 7.584 20.2354 7.856 19.1154 8.4H18.9714V6.432ZM26.1954 14.52V12.504H23.5794C21.1634 12.504 19.9554 13.144 19.9554 14.424C19.9554 15.688 20.8034 16.32 22.4994 16.32C23.2034 16.32 23.8834 16.152 24.5394 15.816C25.1954 15.464 25.7474 15.032 26.1954 14.52ZM38.8119 5.52H39.0039V7.608H38.8119C37.8679 7.608 36.9879 7.792 36.1719 8.16C35.3559 8.528 34.7159 9.04 34.2519 9.696V18H32.0679V5.76H33.9879L34.2519 7.296V7.656H34.2999C35.4519 6.232 36.9559 5.52 38.8119 5.52ZM41.5651 6.432C42.9571 5.824 44.4451 5.52 46.0291 5.52C47.6291 5.52 48.8531 5.984 49.7011 6.912C50.5491 7.84 50.9731 8.952 50.9731 10.248V18H49.0531L48.7891 16.464H48.7171C47.5651 17.648 46.0851 18.24 44.2771 18.24C43.1891 18.24 42.2611 17.912 41.4931 17.256C40.7411 16.6 40.3651 15.704 40.3651 14.568C40.3651 13.432 40.8291 12.512 41.7571 11.808C42.7011 11.104 44.0771 10.752 45.8851 10.752H48.7891V10.56C48.7891 9.504 48.5251 8.744 47.9971 8.28C47.4851 7.816 46.5891 7.584 45.3091 7.584C44.0291 7.584 42.8291 7.856 41.7091 8.4H41.5651V6.432ZM48.7891 14.52V12.504H46.1731C43.7571 12.504 42.5491 13.144 42.5491 14.424C42.5491 15.688 43.3971 16.32 45.0931 16.32C45.7971 16.32 46.4771 16.152 47.1331 15.816C47.7891 15.464 48.3411 15.032 48.7891 14.52ZM64.0936 5.76H66.0136V17.472C66.0136 19.488 65.5256 21.04 64.5496 22.128C63.5736 23.216 62.1576 23.76 60.3016 23.76C58.4616 23.76 56.7816 23.352 55.2616 22.536V20.376H55.3816C56.7416 21.256 58.3336 21.696 60.1576 21.696C62.6056 21.696 63.8296 20.392 63.8296 17.784V16.224H63.7576C62.6536 17.408 61.3336 18 59.7976 18C58.2616 18 56.8936 17.456 55.6936 16.368C54.5096 15.264 53.9176 13.728 53.9176 11.76C53.9176 9.792 54.5096 8.264 55.6936 7.176C56.8936 6.072 58.2616 5.52 59.7976 5.52C61.3336 5.52 62.6536 6.112 63.7576 7.296H63.8296L64.0936 5.76ZM63.8296 14.232V9.288C62.6776 8.104 61.4776 7.512 60.2296 7.512C58.9976 7.512 57.9976 7.88 57.2296 8.616C56.4776 9.336 56.1016 10.384 56.1016 11.76C56.1016 13.136 56.4776 14.192 57.2296 14.928C57.9976 15.648 58.9976 16.008 60.2296 16.008C61.4776 16.008 62.6776 15.416 63.8296 14.232ZM80.5543 11.88V12.648H71.2903C71.4183 13.768 71.8343 14.64 72.5383 15.264C73.2423 15.888 74.3063 16.2 75.7303 16.2C77.1703 16.2 78.4983 15.8 79.7143 15H79.8343V17.112C78.4903 17.864 76.9063 18.24 75.0823 18.24C73.2743 18.24 71.8183 17.688 70.7143 16.584C69.6263 15.464 69.0823 13.96 69.0823 12.072C69.0823 10.168 69.5703 8.6 70.5463 7.368C71.5223 6.136 72.9463 5.52 74.8183 5.52C76.6903 5.52 78.1143 6.136 79.0903 7.368C80.0663 8.6 80.5543 10.104 80.5543 11.88ZM71.2903 10.872H78.3703C78.3063 9.72 77.9143 8.848 77.1943 8.256C76.4903 7.664 75.6983 7.368 74.8183 7.368C73.9383 7.368 73.1463 7.664 72.4423 8.256C71.7383 8.848 71.3543 9.72 71.2903 10.872ZM83.3458 0.24H86.0338V2.928C86.0338 4.784 85.1378 6.088 83.3458 6.84V5.28C84.2258 4.8 84.6658 4.016 84.6658 2.928H83.3458V0.24ZM101.257 3.288H91.8245V8.592H100.393V10.632H91.8245V15.96H101.257V18H89.6405V1.248H101.257V3.288ZM114.185 8.76C113.001 7.96 111.713 7.56 110.321 7.56C108.945 7.56 107.865 7.96 107.081 8.76C106.297 9.544 105.905 10.584 105.905 11.88C105.905 13.176 106.297 14.224 107.081 15.024C107.865 15.808 108.945 16.2 110.321 16.2C111.713 16.2 113.001 15.8 114.185 15H114.281V17.064C112.953 17.848 111.569 18.24 110.129 18.24C108.353 18.24 106.841 17.664 105.593 16.512C104.345 15.36 103.721 13.816 103.721 11.88C103.721 9.944 104.345 8.4 105.593 7.248C106.841 6.096 108.353 5.52 110.129 5.52C111.569 5.52 112.953 5.912 114.281 6.696V8.76H114.185ZM116.636 11.88C116.636 9.976 117.196 8.44 118.316 7.272C119.436 6.104 120.916 5.52 122.756 5.52C124.612 5.52 126.1 6.104 127.22 7.272C128.356 8.44 128.924 9.976 128.924 11.88C128.924 13.784 128.356 15.32 127.22 16.488C126.1 17.656 124.612 18.24 122.756 18.24C120.916 18.24 119.436 17.656 118.316 16.488C117.196 15.32 116.636 13.784 116.636 11.88ZM119.996 15.168C120.796 15.888 121.724 16.248 122.78 16.248C123.836 16.248 124.756 15.888 125.54 15.168C126.34 14.432 126.74 13.336 126.74 11.88C126.74 10.408 126.34 9.312 125.54 8.592C124.756 7.872 123.836 7.512 122.78 7.512C121.724 7.512 120.796 7.872 119.996 8.592C119.212 9.312 118.82 10.408 118.82 11.88C118.82 13.336 119.212 14.432 119.996 15.168Z" fill="white"/>
</svg>
